<svg xmlns="http://www.w3.org/2000/svg" xmlns:xlink="http://www.w3.org/1999/xlink" width="1080" zoomAndPan="magnify" viewBox="0 0 810 809.999993" height="1080" preserveAspectRatio="xMidYMid meet" version="1.0"><defs><clipPath id="07b2b38329"><path d="M 258.023438 243 L 551 243 L 551 566 L 258.023438 566 Z M 258.023438 243 " clip-rule="nonzero"/></clipPath></defs><g clip-path="url(#07b2b38329)"><path fill="#8cc84b" d="M 391.453125 247.308594 C 399.53125 242.738281 409.828125 242.71875 417.703125 247.308594 L 538.277344 315.269531 C 545.816406 319.507812 550.867188 327.917969 550.792969 336.605469 L 550.792969 472.867188 C 550.84375 481.921875 545.304688 490.511719 537.347656 494.671875 L 417.417969 562.316406 C 416.398438 562.878906 415.34375 563.375 414.257812 563.796875 C 413.171875 564.222656 412.058594 564.570312 410.925781 564.847656 C 409.792969 565.121094 408.648438 565.320312 407.488281 565.445312 C 406.328125 565.566406 405.164062 565.613281 403.996094 565.582031 C 402.832031 565.546875 401.671875 565.4375 400.523438 565.253906 C 399.371094 565.066406 398.234375 564.804688 397.121094 564.464844 C 396.003906 564.128906 394.914062 563.71875 393.851562 563.234375 C 392.789062 562.75 391.765625 562.199219 390.777344 561.578125 L 354.789062 540.789062 C 352.335938 539.324219 349.578125 538.164062 347.84375 535.792969 C 349.378906 533.730469 352.101562 533.46875 354.324219 532.5625 C 359.332031 530.964844 363.914062 528.523438 368.519531 525.941406 C 369.679688 525.132812 371.101562 525.433594 372.210938 526.160156 L 402.902344 543.90625 C 405.09375 545.167969 407.3125 543.503906 409.191406 542.441406 L 526.949219 475.996094 C 528.402344 475.289062 529.210938 473.757812 529.089844 472.160156 L 529.089844 337.210938 C 529.25 335.394531 528.210938 333.738281 526.566406 333.003906 L 406.941406 265.648438 C 406.59375 265.410156 406.222656 265.230469 405.824219 265.105469 C 405.421875 264.980469 405.011719 264.914062 404.59375 264.914062 C 404.175781 264.914062 403.765625 264.976562 403.363281 265.097656 C 402.964844 265.222656 402.589844 265.402344 402.246094 265.640625 L 282.789062 333.132812 C 281.175781 333.871094 280.066406 335.507812 280.265625 337.324219 L 280.265625 472.273438 C 280.125 473.867188 280.972656 475.371094 282.4375 476.058594 L 314.359375 494.074219 C 320.355469 497.304688 327.714844 499.121094 334.316406 496.75 C 335.035156 496.480469 335.726562 496.15625 336.398438 495.78125 C 337.066406 495.402344 337.703125 494.980469 338.304688 494.507812 C 338.910156 494.035156 339.476562 493.519531 340.003906 492.960938 C 340.527344 492.398438 341.007812 491.804688 341.445312 491.171875 C 341.878906 490.542969 342.265625 489.878906 342.601562 489.191406 C 342.933594 488.5 343.214844 487.789062 343.441406 487.054688 C 343.667969 486.320312 343.839844 485.574219 343.953125 484.816406 C 344.066406 484.058594 344.121094 483.296875 344.117188 482.527344 L 344.148438 348.386719 C 344.007812 346.398438 345.886719 344.753906 347.8125 344.953125 L 363.15625 344.953125 C 365.175781 344.902344 366.761719 347.042969 366.488281 349.042969 L 366.457031 484.03125 C 366.46875 496.023438 361.542969 509.0625 350.449219 514.949219 C 336.777344 522.011719 319.878906 520.53125 306.371094 513.738281 L 272.050781 494.761719 C 263.972656 490.722656 258.550781 482.003906 258.601562 472.960938 L 258.601562 336.699219 C 258.609375 335.59375 258.691406 334.5 258.847656 333.40625 C 259 332.316406 259.226562 331.238281 259.527344 330.179688 C 259.824219 329.117188 260.191406 328.078125 260.625 327.066406 C 261.0625 326.054688 261.5625 325.074219 262.128906 324.128906 C 262.695312 323.183594 263.324219 322.28125 264.007812 321.417969 C 264.695312 320.554688 265.4375 319.742188 266.230469 318.980469 C 267.027344 318.214844 267.871094 317.507812 268.757812 316.855469 C 269.648438 316.203125 270.578125 315.617188 271.542969 315.085938 Z M 426.222656 341.765625 C 443.65625 340.753906 462.320312 341.097656 478.007812 349.6875 C 490.152344 356.269531 496.886719 370.078125 497.109375 383.582031 C 496.765625 385.398438 494.867188 386.40625 493.132812 386.277344 C 488.085938 386.265625 483.015625 386.347656 477.949219 386.246094 C 475.796875 386.328125 474.558594 384.347656 474.285156 382.453125 C 472.832031 375.992188 469.308594 369.601562 463.230469 366.484375 C 453.902344 361.808594 443.082031 362.042969 432.90625 362.144531 C 425.472656 362.546875 417.488281 363.183594 411.199219 367.542969 C 406.355469 370.855469 404.902344 377.636719 406.628906 382.90625 C 408.242188 386.769531 412.714844 388.011719 416.359375 389.164062 C 437.375 394.652344 459.636719 394.210938 480.261719 401.347656 C 488.789062 404.292969 497.140625 410.027344 500.066406 418.960938 C 503.882812 430.929688 502.21875 445.242188 493.707031 454.851562 C 486.800781 462.765625 476.746094 466.964844 466.703125 469.40625 C 453.347656 472.382812 439.496094 472.453125 425.9375 471.121094 C 413.1875 469.667969 399.925781 466.316406 390.082031 457.636719 C 381.660156 450.328125 377.5625 438.945312 377.96875 427.960938 C 378.066406 426.105469 379.914062 424.8125 381.703125 424.964844 L 396.84375 424.964844 C 398.882812 424.824219 400.378906 426.578125 400.480469 428.496094 C 401.417969 434.554688 403.730469 441.113281 409.101562 444.648438 C 419.457031 451.328125 432.449219 450.863281 444.300781 451.054688 C 454.125 450.621094 465.148438 450.492188 473.171875 443.992188 C 477.414062 440.285156 478.65625 434.097656 477.515625 428.769531 C 476.273438 424.269531 471.457031 422.179688 467.417969 420.695312 C 446.675781 414.132812 424.164062 416.515625 403.617188 409.085938 C 395.28125 406.140625 387.214844 400.570312 384.015625 392 C 379.542969 379.886719 381.589844 364.878906 391.011719 355.59375 C 400.09375 346.355469 413.421875 342.792969 426.039062 341.523438 Z M 426.222656 341.765625 " fill-opacity="1" fill-rule="nonzero"/></g></svg>