<svg xmlns="http://www.w3.org/2000/svg" xmlns:xlink="http://www.w3.org/1999/xlink" width="559" zoomAndPan="magnify" viewBox="0 0 419.25 297.749991" height="397" preserveAspectRatio="xMidYMid meet" version="1.0"><defs><clipPath id="919d1faa3f"><path d="M 0 0.140625 L 418.5 0.140625 L 418.5 297.359375 L 0 297.359375 Z M 0 0.140625 " clip-rule="nonzero"/></clipPath><clipPath id="359db35119"><path d="M 0 0.140625 L 418.222656 0.140625 L 418.222656 297.164062 L 0 297.164062 Z M 0 0.140625 " clip-rule="nonzero"/></clipPath><clipPath id="f452799d86"><path d="M 0 0.140625 L 418.5 0.140625 L 418.5 297.359375 L 0 297.359375 Z M 0 0.140625 " clip-rule="nonzero"/></clipPath><clipPath id="5a7d5468e1"><path d="M 0 0.140625 L 418.5 0.140625 L 418.5 297.359375 L 0 297.359375 Z M 0 0.140625 " clip-rule="nonzero"/></clipPath><clipPath id="274fb7a6c3"><rect x="0" width="419" y="0" height="298"/></clipPath><clipPath id="34747d33cd"><rect x="0" width="419" y="0" height="298"/></clipPath></defs><g clip-path="url(#919d1faa3f)"><path fill="#ffffff" d="M 0 0.140625 L 418.5 0.140625 L 418.5 297.359375 L 0 297.359375 Z M 0 0.140625 " fill-opacity="1" fill-rule="nonzero"/><g transform="matrix(1, 0, 0, 1, 0, 0.000000000000006772)"><g clip-path="url(#34747d33cd)"><g clip-path="url(#359db35119)"><path fill="#ffffff" d="M 0 0.140625 L 418.222656 0.140625 L 418.222656 297.164062 L 0 297.164062 Z M 0 0.140625 " fill-opacity="1" fill-rule="nonzero"/></g><g clip-path="url(#f452799d86)"><g transform="matrix(1, 0, 0, 1, 0, 0.000000000000006772)"><g clip-path="url(#274fb7a6c3)"><g clip-path="url(#5a7d5468e1)"><rect x="-152.607" width="724.464" fill="#000000" y="-108.380997" height="514.511984" fill-opacity="1"/></g></g></g></g></g></g></g></svg>